<svg xmlns="http://www.w3.org/2000/svg" width="24" height="22" viewBox="0 0 24 22">
    <path fill="#FFF" d="M11.767.526c1.365 0 2.638.735 3.32 1.918l7.679 13.299c.396.618.606 1.33.606 2.07 0 2.102-1.703 3.816-3.803 3.833H4.001c-1.366 0-2.638-.735-3.322-1.918-.682-1.181-.682-2.651 0-3.833L8.446 2.444C9.129 1.26 10.4.526 11.766.526zM12 17c-.828 0-1.5.672-1.5 1.5S11.172 20 12 20s1.5-.672 1.5-1.5S12.828 17 12 17zm0-12c-.828 0-1.5.672-1.5 1.5v7c0 .828.672 1.5 1.5 1.5s1.5-.672 1.5-1.5v-7c0-.828-.672-1.5-1.5-1.5z"/>
</svg>
